<svg width="30" height="30" viewBox="0 0 30 30" fill="none" xmlns="http://www.w3.org/2000/svg">
<rect width="30" height="30" fill="#0099FF"/>
<path d="M15 8.25015V10.2639C15 10.7701 15.6075 11.0176 15.9563 10.6576L19.095 7.5189C19.32 7.2939 19.32 6.94515 19.095 6.72015L15.9563 3.5814C15.6075 3.23265 15 3.48015 15 3.9864V6.00015C10.0275 6.00015 6 10.0276 6 15.0001C6 16.1701 6.225 17.2951 6.64125 18.3189C6.945 19.0726 7.9125 19.2751 8.48625 18.7014C8.79 18.3976 8.91375 17.9364 8.745 17.5314C8.41875 16.7551 8.25 15.8889 8.25 15.0001C8.25 11.2764 11.2763 8.25015 15 8.25015ZM21.5138 11.2989C21.21 11.6026 21.0862 12.0751 21.255 12.4689C21.57 13.2564 21.75 14.1114 21.75 15.0001C21.75 18.7239 18.7237 21.7501 15 21.7501V19.7364C15 19.2301 14.3925 18.9826 14.0437 19.3426L10.905 22.4814C10.68 22.7064 10.68 23.0551 10.905 23.2801L14.0437 26.4189C14.3925 26.7676 15 26.5201 15 26.0251V24.0001C19.9725 24.0001 24 19.9726 24 15.0001C24 13.8301 23.775 12.7051 23.3588 11.6814C23.055 10.9276 22.0875 10.7251 21.5138 11.2989Z" fill="white"/>
</svg>
