<svg width="30" height="30" viewBox="0 0 30 30" fill="none" xmlns="http://www.w3.org/2000/svg">
<rect width="30" height="30" fill="#0062FF"/>
<path d="M15 8.2499V10.2637C15 10.7699 15.6075 11.0174 15.9563 10.6574L19.095 7.51865C19.32 7.29365 19.32 6.9449 19.095 6.7199L15.9563 3.58115C15.6075 3.2324 15 3.4799 15 3.98615V5.9999C10.0275 5.9999 6 10.0274 6 14.9999C6 16.1699 6.225 17.2949 6.64125 18.3187C6.945 19.0724 7.9125 19.2749 8.48625 18.7012C8.79 18.3974 8.91375 17.9362 8.745 17.5312C8.41875 16.7549 8.25 15.8887 8.25 14.9999C8.25 11.2762 11.2763 8.2499 15 8.2499ZM21.5138 11.2987C21.21 11.6024 21.0862 12.0749 21.255 12.4687C21.57 13.2562 21.75 14.1112 21.75 14.9999C21.75 18.7237 18.7237 21.7499 15 21.7499V19.7362C15 19.2299 14.3925 18.9824 14.0437 19.3424L10.905 22.4812C10.68 22.7062 10.68 23.0549 10.905 23.2799L14.0437 26.4187C14.3925 26.7674 15 26.5199 15 26.0249V23.9999C19.9725 23.9999 24 19.9724 24 14.9999C24 13.8299 23.775 12.7049 23.3588 11.6812C23.055 10.9274 22.0875 10.7249 21.5138 11.2987Z" fill="white"/>
</svg>
