<svg width="30" height="30" viewBox="0 0 30 30" fill="none" xmlns="http://www.w3.org/2000/svg">
<rect width="30" height="30" fill="#8855FF"/>
<path fill-rule="evenodd" clip-rule="evenodd" d="M5.6219 18.7205L7.06665 17.9715C7.33046 17.8321 7.64336 17.8338 7.91014 17.9763L13.743 21.0868C14.5209 21.464 15.4324 21.4691 16.219 21.1007L22.0771 18.0556C22.3409 17.9161 22.6538 17.9178 22.9206 18.0603L24.3403 18.8184C25.1497 19.2503 25.1458 19.9504 24.3317 20.3777L15.7583 24.8307C15.2355 25.0596 14.6415 25.0563 14.1258 24.8215L5.60265 20.2683C4.78877 19.8319 4.80322 19.1478 5.6219 18.7205ZM5.65473 14.1765L7.09198 13.4253C7.35579 13.2858 7.6687 13.2876 7.93547 13.43L13.7683 16.5406C14.5462 16.9177 15.4577 16.9228 16.2443 16.5544L22.1024 13.5093C22.3662 13.3699 22.6791 13.3716 22.9459 13.514L24.3657 14.2721C25.175 14.704 25.1711 15.4042 24.357 15.8315L15.7837 20.2844C15.2609 20.5134 14.6668 20.51 14.1511 20.2753L5.62798 15.7221C4.81411 15.2857 4.83605 14.6038 5.65473 14.1765Z" fill="white"/>
<path d="M14.2489 5.17278C14.7672 4.93927 15.3612 4.94259 15.8769 5.18189L24.3955 9.73049C25.2049 10.1624 25.201 10.8625 24.3868 11.2898L15.8135 15.7428C15.2907 15.9717 14.6966 15.9684 14.181 15.7336L5.65782 11.1805C4.84395 10.744 4.84785 10.0439 5.66654 9.61655L14.2489 5.17278Z" fill="white"/>
</svg>