<svg width="30" height="30" viewBox="0 0 200 200" fill="none" xmlns="http://www.w3.org/2000/svg">
  <rect width="200" height="200" fill="url(#paint0_linear_16_5)"/>
  <path fill-rule="evenodd" clip-rule="evenodd" d="M36.2047 93.1632L46.546 93.1632C48.4422 93.148 50.2041 94.0719 51.2955 95.6536L75.1687 130.216C78.4625 134.613 83.595 137.304 89.1106 137.526L131.066 137.481C132.962 137.465 134.724 138.389 135.815 139.971L141.623 148.389C144.935 153.187 142.873 157.12 137.03 157.149L75.639 157.196C72.0195 156.959 68.6745 155.205 66.4465 152.376L31.5852 101.828C28.2612 96.9914 30.3363 93.1796 36.2047 93.1632ZM49.6326 67.6572L59.938 67.6228C61.8341 67.6076 63.596 68.5315 64.6874 70.1132L88.5607 104.676C91.8545 109.073 96.9869 111.764 102.503 111.986L144.457 111.94C146.354 111.925 148.116 112.849 149.207 114.43L155.015 122.849C158.327 127.646 156.265 131.579 150.422 131.609L89.0309 131.656C85.4114 131.419 82.0664 129.665 79.8385 126.836L44.9772 76.2874C41.6532 71.451 43.7641 67.6735 49.6326 67.6572Z" fill="white"/>
  <path d="M124.403 42.031C128.01 42.2292 131.355 43.9831 133.57 46.8376L168.419 97.3473C171.731 102.145 169.669 106.078 163.826 106.108L102.435 106.155C98.8155 105.917 95.4705 104.163 93.2426 101.335L58.3813 50.7859C55.0573 45.9496 57.1196 42.0163 62.9881 42L124.403 42.031Z" fill="white"/>
  <defs>
  <linearGradient id="paint0_linear_16_5" x1="200" y1="51.4286" x2="1.94768e-06" y2="143.214" gradientUnits="userSpaceOnUse">
  <stop stop-color="#00CCFF"/>
  <stop offset="1" stop-color="#6019FA"/>
  </linearGradient>
  </defs>
</svg>
  